MulatAbay-Regular.ufo
<glyph name="exclam" format="2">
  <advance width="527"/>
  <unicode hex="0021"/>
  <note>
uni0021
</note>
  <outline>
    <contour>
      <point x="180" y="411" type="line"/>
      <point x="347" y="411" type="line"/>
      <point x="361" y="1456" type="line"/>
      <point x="167" y="1456" type="line"/>
    </contour>
    <contour>
      <point x="269" y="-11" type="curve" smooth="yes"/>
      <point x="341" y="-11"/>
      <point x="379" y="33"/>
      <point x="379" y="93" type="curve" smooth="yes"/>
      <point x="379" y="153"/>
      <point x="341" y="199"/>
      <point x="269" y="199" type="curve" smooth="yes"/>
      <point x="197" y="199"/>
      <point x="160" y="153"/>
      <point x="160" y="93" type="curve" smooth="yes"/>
      <point x="160" y="33"/>
      <point x="197" y="-11"/>
    </contour>
  </outline>
</glyph>
<glyph name="parenleft" format="2">
  <advance width="700"/>
  <unicode hex="0028"/>
  <note>
uni0028
</note>
  <outline>
    <contour>
      <point x="623" y="-470" type="curve"/>
      <point x="661" y="-357" type="line"/>
      <point x="535" y="-254"/>
      <point x="448" y="-100"/>
      <point x="393" y="73" type="curve" smooth="yes"/>
      <point x="341" y="234"/>
      <point x="318" y="411"/>
      <point x="318" y="579" type="curve" smooth="yes"/>
      <point x="324" y="782"/>
      <point x="353" y="959"/>
      <point x="400" y="1106" type="curve" smooth="yes"/>
      <point x="461" y="1296"/>
      <point x="551" y="1437"/>
      <point x="661" y="1521" type="curve"/>
      <point x="623" y="1643" type="line"/>
      <point x="471" y="1561"/>
      <point x="353" y="1406"/>
      <point x="271" y="1225" type="curve" smooth="yes"/>
      <point x="180" y="1024"/>
      <point x="133" y="790"/>
      <point x="133" y="591" type="curve" smooth="yes"/>
      <point x="133" y="275.667"/>
      <point x="211.667" y="4.667"/>
      <point x="369" y="-222" type="curve" smooth="yes"/>
      <point x="449.667" y="-338"/>
      <point x="534.333" y="-420.667"/>
    </contour>
  </outline>
</glyph>
<glyph name="parenright" format="2">
  <advance width="712"/>
  <unicode hex="0029"/>
  <note>
uni0029
</note>
  <outline>
    <contour>
      <point x="77" y="-470" type="line"/>
      <point x="253" y="-372.667"/>
      <point x="430.5" y="-119.167"/>
      <point x="508.5" y="153.5" type="curve" smooth="yes"/>
      <point x="547.5" y="289.833"/>
      <point x="567" y="432.333"/>
      <point x="567" y="581" type="curve" smooth="yes"/>
      <point x="567" y="894.333"/>
      <point x="487.833" y="1171"/>
      <point x="328.5" y="1399" type="curve" smooth="yes"/>
      <point x="248.833" y="1513"/>
      <point x="165" y="1594.333"/>
      <point x="77" y="1643" type="curve"/>
      <point x="38" y="1530" type="line"/>
      <point x="168.667" y="1423.333"/>
      <point x="278.333" y="1224.167"/>
      <point x="337" y="983.5" type="curve" smooth="yes"/>
      <point x="366.333" y="863.167"/>
      <point x="381" y="733"/>
      <point x="381" y="593" type="curve" smooth="yes"/>
      <point x="380" y="360"/>
      <point x="346" y="171"/>
      <point x="286" y="12" type="curve" smooth="yes"/>
      <point x="227" y="-149"/>
      <point x="141" y="-278"/>
      <point x="38" y="-357" type="curve"/>
    </contour>
  </outline>
</glyph>
<glyph name="asterisk" format="2">
  <advance width="882"/>
  <unicode hex="002A"/>
  <note>
uni002A
</note>
  <outline>
    <contour>
      <point x="620" y="609" type="line"/>
      <point x="744" y="703" type="line"/>
      <point x="546" y="974" type="line"/>
      <point x="853" y="1065" type="line"/>
      <point x="807" y="1217" type="line"/>
      <point x="510" y="1107" type="line"/>
      <point x="520" y="1456" type="line"/>
      <point x="367" y="1456" type="line"/>
      <point x="376" y="1112" type="line"/>
      <point x="74" y="1224" type="line"/>
      <point x="28" y="1073" type="line"/>
      <point x="330" y="983" type="line"/>
      <point x="129" y="707" type="line"/>
      <point x="254" y="616" type="line"/>
      <point x="434" y="897" type="line"/>
    </contour>
  </outline>
</glyph>
<glyph name="hyphen" format="2">
  <advance width="565"/>
  <unicode hex="002D"/>
  <note>
uni002D
</note>
  <outline>
    <contour>
      <point x="37" y="543" type="line"/>
      <point x="525" y="543" type="line"/>
      <point x="525" y="694" type="line"/>
      <point x="37" y="694" type="line"/>
    </contour>
  </outline>
</glyph>
<glyph name="period" format="2">
  <advance width="539"/>
  <unicode hex="002E"/>
  <note>
uni002E
</note>
  <outline>
    <contour>
      <point x="258" y="-11" type="curve" smooth="yes"/>
      <point x="334" y="-11"/>
      <point x="374" y="35.667"/>
      <point x="374" y="97" type="curve" smooth="yes"/>
      <point x="374" y="161"/>
      <point x="334" y="209"/>
      <point x="258" y="209" type="curve" smooth="yes"/>
      <point x="182" y="209"/>
      <point x="144" y="161"/>
      <point x="144" y="97" type="curve" smooth="yes"/>
      <point x="144" y="35.667"/>
      <point x="182" y="-11"/>
    </contour>
  </outline>
</glyph>
<glyph name="zero" format="2">
  <advance width="1150"/>
  <unicode hex="0030"/>
  <note>
uni0030
</note>
  <outline>
    <contour>
      <point x="576" y="-20" type="curve" smooth="yes"/>
      <point x="890.667" y="-20"/>
      <point x="1034" y="187.667"/>
      <point x="1034" y="621" type="curve" smooth="yes"/>
      <point x="1034" y="861" type="line" smooth="yes"/>
      <point x="1030" y="1279.667"/>
      <point x="887.333" y="1476"/>
      <point x="574" y="1476" type="curve" smooth="yes"/>
      <point x="258" y="1476"/>
      <point x="115" y="1271"/>
      <point x="115" y="843" type="curve" smooth="yes"/>
      <point x="115" y="596" type="line" smooth="yes"/>
      <point x="120.333" y="186.667"/>
      <point x="265.333" y="-20"/>
    </contour>
    <contour>
      <point x="576" y="131" type="curve" smooth="yes"/>
      <point x="390.667" y="131"/>
      <point x="300" y="277.333"/>
      <point x="300" y="592" type="curve" smooth="yes"/>
      <point x="300" y="888" type="line" smooth="yes"/>
      <point x="302.667" y="1184"/>
      <point x="384.667" y="1324"/>
      <point x="574" y="1324" type="curve" smooth="yes"/>
      <point x="764.667" y="1324"/>
      <point x="849" y="1187.333"/>
      <point x="849" y="874" type="curve" smooth="yes"/>
      <point x="849" y="571" type="line" smooth="yes"/>
      <point x="845" y="267"/>
      <point x="758.667" y="131"/>
    </contour>
  </outline>
</glyph>
<glyph name="nine" format="2">
  <advance width="1150"/>
  <unicode hex="0039"/>
  <note>
uni0039
</note>
  <outline>
    <contour>
      <point x="305" y="-1" type="line" name="❌"/>
      <point x="341" y="-1" type="line" smooth="yes" name="❌"/>
      <point x="793" y="5.667"/>
      <point x="1016" y="253.333"/>
      <point x="1016" y="820" type="curve" smooth="yes"/>
      <point x="1016" y="874" type="line" smooth="yes"/>
      <point x="1016" y="1246"/>
      <point x="839" y="1476"/>
      <point x="551" y="1476" type="curve" smooth="yes"/>
      <point x="369.667" y="1476"/>
      <point x="229.5" y="1391"/>
      <point x="155.5" y="1235" type="curve" smooth="yes"/>
      <point x="118.5" y="1157"/>
      <point x="100" y="1069"/>
      <point x="100" y="972" type="curve" smooth="yes"/>
      <point x="100" y="704"/>
      <point x="251" y="487"/>
      <point x="515" y="487" type="curve" smooth="yes"/>
      <point x="643" y="487"/>
      <point x="752.667" y="548"/>
      <point x="830" y="640" type="curve"/>
      <point x="815.333" y="306.667"/>
      <point x="649.333" y="160.333"/>
      <point x="344" y="155" type="curve" smooth="yes"/>
      <point x="305" y="155" type="line"/>
    </contour>
    <contour>
      <point x="545" y="640" type="curve" smooth="yes"/>
      <point x="385" y="640"/>
      <point x="282" y="783.333"/>
      <point x="282" y="982" type="curve" smooth="yes"/>
      <point x="282" y="1186"/>
      <point x="389.333" y="1322"/>
      <point x="552" y="1322" type="curve" smooth="yes"/>
      <point x="713.333" y="1322"/>
      <point x="831" y="1154.667"/>
      <point x="831" y="912" type="curve" smooth="yes"/>
      <point x="831" y="838" type="line"/>
      <point x="783" y="726"/>
      <point x="669" y="640"/>
    </contour>
  </outline>
</glyph>
<glyph name="greater" format="2">
  <advance width="1070"/>
  <unicode hex="003E"/>
  <note>
uni003E
</note>
  <outline>
    <contour>
      <point x="134" y="196" type="line"/>
      <point x="988" y="575" type="line"/>
      <point x="988" y="721" type="line"/>
      <point x="134" y="1099" type="line"/>
      <point x="134" y="909" type="line"/>
      <point x="795" y="650" type="line"/>
      <point x="134" y="388" type="line"/>
    </contour>
  </outline>
</glyph>
<glyph name="A" format="2">
  <advance width="1336"/>
  <unicode hex="0041"/>
  <note>
uni0041
</note>
  <outline>
    <contour>
      <point x="28" y="0" type="line"/>
      <point x="226" y="0" type="line"/>
      <point x="363" y="380" type="line"/>
      <point x="973" y="380" type="line"/>
      <point x="1112" y="0" type="line"/>
      <point x="1309" y="0" type="line"/>
      <point x="752" y="1456" type="line"/>
      <point x="584" y="1456" type="line"/>
    </contour>
    <contour>
      <point x="421" y="538" type="line"/>
      <point x="668" y="1219" type="line"/>
      <point x="916" y="538" type="line"/>
    </contour>
  </outline>
</glyph>
<glyph name="B" format="2">
  <advance width="1275"/>
  <unicode hex="0042"/>
  <note>
uni0042
</note>
  <outline>
    <contour>
      <point x="169" y="0" type="line"/>
      <point x="674" y="0" type="line" smooth="yes"/>
      <point x="983.333" y="0"/>
      <point x="1160" y="158.667"/>
      <point x="1160" y="420" type="curve" smooth="yes"/>
      <point x="1160" y="590.667"/>
      <point x="1062.333" y="722"/>
      <point x="905" y="766" type="curve"/>
      <point x="1038.333" y="823.333"/>
      <point x="1121" y="932"/>
      <point x="1121" y="1068" type="curve" smooth="yes"/>
      <point x="1121" y="1324"/>
      <point x="961" y="1456"/>
      <point x="645" y="1456" type="curve" smooth="yes"/>
      <point x="169" y="1456" type="line"/>
    </contour>
    <contour>
      <point x="361" y="157" type="line"/>
      <point x="361" y="681" type="line"/>
      <point x="681" y="681" type="line" smooth="yes"/>
      <point x="871.667" y="681"/>
      <point x="967" y="593.333"/>
      <point x="967" y="418" type="curve" smooth="yes"/>
      <point x="967" y="255.333"/>
      <point x="856.667" y="157"/>
      <point x="678" y="157" type="curve" smooth="yes"/>
    </contour>
    <contour>
      <point x="361" y="835" type="line"/>
      <point x="361" y="1298" type="line"/>
      <point x="645" y="1298" type="line" smooth="yes"/>
      <point x="835.667" y="1298"/>
      <point x="928" y="1229"/>
      <point x="928" y="1069" type="curve" smooth="yes"/>
      <point x="928" y="925"/>
      <point x="819" y="835"/>
      <point x="651" y="835" type="curve" smooth="yes"/>
    </contour>
  </outline>
</glyph>
<glyph name="C" format="2">
  <advance width="1333"/>
  <unicode hex="0043"/>
  <note>
uni0043
</note>
  <outline>
    <contour>
      <point x="688" y="-20" type="curve" smooth="yes"/>
      <point x="1005.333" y="-20"/>
      <point x="1204" y="154"/>
      <point x="1240" y="462" type="curve"/>
      <point x="1047" y="462" type="line"/>
      <point x="1009.667" y="222"/>
      <point x="901.333" y="137"/>
      <point x="688" y="137" type="curve" smooth="yes"/>
      <point x="450.667" y="137"/>
      <point x="312" y="338"/>
      <point x="312" y="654" type="curve" smooth="yes"/>
      <point x="312" y="795" type="line" smooth="yes"/>
      <point x="312" y="1129.667"/>
      <point x="459.667" y="1318"/>
      <point x="705" y="1318" type="curve" smooth="yes"/>
      <point x="905" y="1318"/>
      <point x="1013.667" y="1220"/>
      <point x="1047" y="988" type="curve"/>
      <point x="1240" y="988" type="line"/>
      <point x="1209.333" y="1293.333"/>
      <point x="1014.333" y="1476"/>
      <point x="705" y="1476" type="curve" smooth="yes"/>
      <point x="471.667" y="1476"/>
      <point x="288.167" y="1362.333"/>
      <point x="191.5" y="1157" type="curve" smooth="yes"/>
      <point x="143.167" y="1054.333"/>
      <point x="119" y="935.333"/>
      <point x="119" y="800" type="curve" smooth="yes"/>
      <point x="119" y="660" type="line" smooth="yes"/>
      <point x="119" y="246.667"/>
      <point x="344" y="-20"/>
    </contour>
  </outline>
</glyph>
<glyph name="E" format="2">
  <advance width="1164"/>
  <unicode hex="0045"/>
  <note>
uni0045
</note>
  <outline>
    <contour>
      <point x="169" y="0" type="line"/>
      <point x="1094" y="0" type="line"/>
      <point x="1094" y="157" type="line"/>
      <point x="361" y="157" type="line"/>
      <point x="361" y="673" type="line"/>
      <point x="992" y="673" type="line"/>
      <point x="992" y="830" type="line"/>
      <point x="361" y="830" type="line"/>
      <point x="361" y="1298" type="line"/>
      <point x="1084" y="1298" type="line"/>
      <point x="1084" y="1456" type="line"/>
      <point x="169" y="1456" type="line"/>
    </contour>
  </outline>
</glyph>
<glyph name="G" format="2">
  <advance width="1395"/>
  <unicode hex="0047"/>
  <note>
uni0047
</note>
  <outline>
    <contour>
      <point x="729" y="-20" type="curve" smooth="yes"/>
      <point x="963.667" y="-20"/>
      <point x="1145.333" y="49.667"/>
      <point x="1244" y="191" type="curve"/>
      <point x="1244" y="725" type="line"/>
      <point x="716" y="725" type="line"/>
      <point x="716" y="569" type="line"/>
      <point x="1053" y="569" type="line"/>
      <point x="1053" y="242" type="line"/>
      <point x="982.333" y="166"/>
      <point x="874" y="137"/>
      <point x="730" y="137" type="curve" smooth="yes"/>
      <point x="475.333" y="137"/>
      <point x="315" y="344.333"/>
      <point x="315" y="671" type="curve" smooth="yes"/>
      <point x="315" y="790" type="line" smooth="yes"/>
      <point x="316.333" y="1132.667"/>
      <point x="450.667" y="1318"/>
      <point x="708" y="1318" type="curve" smooth="yes"/>
      <point x="901.333" y="1318"/>
      <point x="1016" y="1221.667"/>
      <point x="1052" y="1029" type="curve"/>
      <point x="1244" y="1029" type="line"/>
      <point x="1202.667" y="1314.333"/>
      <point x="1011" y="1476"/>
      <point x="707" y="1476" type="curve" smooth="yes"/>
      <point x="336.333" y="1476"/>
      <point x="122" y="1223.667"/>
      <point x="122" y="785" type="curve" smooth="yes"/>
      <point x="122" y="658" type="line" smooth="yes"/>
      <point x="126" y="262"/>
      <point x="353" y="-20"/>
    </contour>
  </outline>
</glyph>
<glyph name="J" format="2">
  <advance width="1130"/>
  <unicode hex="004A"/>
  <note>
uni004A
</note>
  <outline>
    <contour>
      <point x="512" y="-20" type="curve" smooth="yes"/>
      <point x="790.667" y="-20"/>
      <point x="972" y="146.333"/>
      <point x="972" y="425" type="curve" smooth="yes"/>
      <point x="972" y="1456" type="line"/>
      <point x="779" y="1456" type="line"/>
      <point x="779" y="422" type="line" smooth="yes"/>
      <point x="777.667" y="242"/>
      <point x="670.667" y="137"/>
      <point x="512" y="137" type="curve" smooth="yes"/>
      <point x="338.667" y="137"/>
      <point x="245" y="235.333"/>
      <point x="245" y="402" type="curve"/>
      <point x="53" y="402" type="line"/>
      <point x="53" y="135.333"/>
      <point x="222.667" y="-20"/>
    </contour>
  </outline>
</glyph>
<glyph name="U" format="2">
  <advance width="1328"/>
  <unicode hex="0055"/>
  <note>
uni0055
</note>
  <outline>
    <contour>
      <point x="665" y="-20" type="curve" smooth="yes"/>
      <point x="1009.333" y="3.333"/>
      <point x="1192.667" y="191.333"/>
      <point x="1194" y="466" type="curve" smooth="yes"/>
      <point x="1194" y="1456" type="line"/>
      <point x="1001" y="1456" type="line"/>
      <point x="1001" y="469" type="line" smooth="yes"/>
      <point x="1001" y="258.333"/>
      <point x="882.333" y="137"/>
      <point x="665" y="137" type="curve" smooth="yes"/>
      <point x="450.333" y="137"/>
      <point x="330" y="259.333"/>
      <point x="330" y="470" type="curve" smooth="yes"/>
      <point x="330" y="1456" type="line"/>
      <point x="140" y="1456" type="line"/>
      <point x="140" y="464" type="line" smooth="yes"/>
      <point x="142.667" y="162.667"/>
      <point x="346.333" y="-20"/>
    </contour>
  </outline>
</glyph>
<glyph name="bracketleft" format="2">
  <advance width="543"/>
  <unicode hex="005B"/>
  <note>
uni005B
</note>
  <outline>
    <contour>
      <point x="146" y="-312" type="line"/>
      <point x="523" y="-312" type="line"/>
      <point x="523" y="-160" type="line"/>
      <point x="332" y="-160" type="line"/>
      <point x="332" y="1512" type="line"/>
      <point x="523" y="1512" type="line"/>
      <point x="523" y="1664" type="line"/>
      <point x="146" y="1664" type="line"/>
    </contour>
  </outline>
</glyph>
<glyph name="bracketright" format="2">
  <advance width="543"/>
  <unicode hex="005D"/>
  <note>
uni005D
</note>
  <outline>
    <contour>
      <point x="9" y="-312" type="line"/>
      <point x="387" y="-312" type="line"/>
      <point x="387" y="1664" type="line"/>
      <point x="9" y="1664" type="line"/>
      <point x="9" y="1512" type="line"/>
      <point x="202" y="1512" type="line"/>
      <point x="202" y="-160" type="line"/>
      <point x="9" y="-160" type="line"/>
    </contour>
  </outline>
</glyph>
<glyph name="h" format="2">
  <advance width="1128"/>
  <unicode hex="0068"/>
  <note>
uni0068
</note>
  <outline>
    <contour>
      <point x="140" y="0" type="line"/>
      <point x="325" y="0" type="line"/>
      <point x="325" y="771" type="line"/>
      <point x="375.667" y="875"/>
      <point x="469" y="945"/>
      <point x="589" y="945" type="curve" smooth="yes"/>
      <point x="737" y="945"/>
      <point x="804.667" y="872"/>
      <point x="806" y="716" type="curve" smooth="yes"/>
      <point x="806" y="0" type="line"/>
      <point x="991" y="0" type="line"/>
      <point x="991" y="715" type="line" smooth="yes"/>
      <point x="989" y="973"/>
      <point x="873.667" y="1102"/>
      <point x="645" y="1102" type="curve" smooth="yes"/>
      <point x="513.667" y="1102"/>
      <point x="407" y="1051.667"/>
      <point x="325" y="951" type="curve"/>
      <point x="325" y="1536" type="line"/>
      <point x="140" y="1536" type="line"/>
    </contour>
  </outline>
</glyph>
<glyph name="i" format="2">
  <advance width="497"/>
  <unicode hex="0069"/>
  <note>
uni0069
</note>
  <outline>
    <contour>
      <point x="156" y="0" type="line"/>
      <point x="341" y="0" type="line"/>
      <point x="341" y="1082" type="line"/>
      <point x="156" y="1082" type="line"/>
    </contour>
    <contour>
      <point x="250" y="1264" type="curve" smooth="yes"/>
      <point x="322" y="1264"/>
      <point x="360" y="1309"/>
      <point x="360" y="1369" type="curve" smooth="yes"/>
      <point x="360" y="1429"/>
      <point x="322" y="1476"/>
      <point x="250" y="1476" type="curve" smooth="yes"/>
      <point x="178" y="1476"/>
      <point x="141" y="1429"/>
      <point x="141" y="1369" type="curve" smooth="yes"/>
      <point x="141" y="1309"/>
      <point x="178" y="1264"/>
    </contour>
  </outline>
</glyph>
<glyph name="n" format="2">
  <advance width="1130"/>
  <unicode hex="006E"/>
  <note>
uni006E
</note>
  <outline>
    <contour>
      <point x="140" y="0" type="line"/>
      <point x="325" y="0" type="line"/>
      <point x="325" y="771" type="line"/>
      <point x="375.667" y="875"/>
      <point x="469" y="945"/>
      <point x="589" y="945" type="curve" smooth="yes"/>
      <point x="737" y="945"/>
      <point x="804.667" y="872"/>
      <point x="806" y="716" type="curve" smooth="yes"/>
      <point x="806" y="0" type="line"/>
      <point x="991" y="0" type="line"/>
      <point x="991" y="715" type="line" smooth="yes"/>
      <point x="989" y="973"/>
      <point x="873.667" y="1102"/>
      <point x="645" y="1102" type="curve" smooth="yes"/>
      <point x="511.667" y="1102"/>
      <point x="403.667" y="1050"/>
      <point x="321" y="946" type="curve"/>
      <point x="315" y="1082" type="line"/>
      <point x="140" y="1082" type="line"/>
    </contour>
  </outline>
</glyph>
<glyph name="p" format="2">
  <advance width="1149"/>
  <unicode hex="0070"/>
  <note>
uni0070
</note>
  <outline>
    <contour>
      <point x="140" y="-416" type="line"/>
      <point x="325" y="-416" type="line"/>
      <point x="325" y="105" type="line"/>
      <point x="400.333" y="21.667"/>
      <point x="503.667" y="-20"/>
      <point x="635" y="-20" type="curve" smooth="yes"/>
      <point x="892.333" y="-20"/>
      <point x="1054" y="199.667"/>
      <point x="1054" y="529" type="curve" smooth="yes"/>
      <point x="1054" y="546" type="line" smooth="yes"/>
      <point x="1054" y="895.333"/>
      <point x="892" y="1102"/>
      <point x="632" y="1102" type="curve" smooth="yes"/>
      <point x="498" y="1102"/>
      <point x="393.333" y="1055.333"/>
      <point x="318" y="962" type="curve"/>
      <point x="309" y="1082" type="line"/>
      <point x="140" y="1082" type="line"/>
    </contour>
    <contour>
      <point x="579" y="131" type="curve" smooth="yes"/>
      <point x="465" y="131"/>
      <point x="380.333" y="180.333"/>
      <point x="325" y="279" type="curve"/>
      <point x="325" y="796" type="line"/>
      <point x="381" y="895.333"/>
      <point x="465" y="945"/>
      <point x="577" y="945" type="curve" smooth="yes"/>
      <point x="758.333" y="945"/>
      <point x="869" y="794"/>
      <point x="869" y="550" type="curve" smooth="yes"/>
      <point x="869" y="272.667"/>
      <point x="756.333" y="131"/>
    </contour>
  </outline>
</glyph>
<glyph name="s" format="2">
  <advance width="1056"/>
  <unicode hex="0073"/>
  <note>
uni0073
</note>
  <outline>
    <contour>
      <point x="538" y="-20" type="curve" smooth="yes"/>
      <point x="784.667" y="-20"/>
      <point x="955" y="106.667"/>
      <point x="955" y="300" type="curve" smooth="yes"/>
      <point x="955" y="512"/>
      <point x="755" y="582"/>
      <point x="561.5" y="625" type="curve" smooth="yes"/>
      <point x="451" y="650"/>
      <point x="317" y="677"/>
      <point x="317" y="791" type="curve" smooth="yes"/>
      <point x="317" y="885.667"/>
      <point x="397.333" y="950"/>
      <point x="532" y="950" type="curve" smooth="yes"/>
      <point x="662.667" y="950"/>
      <point x="759" y="865.333"/>
      <point x="759" y="764" type="curve"/>
      <point x="945" y="764" type="line"/>
      <point x="945" y="961.333"/>
      <point x="777.333" y="1102"/>
      <point x="532" y="1102" type="curve" smooth="yes"/>
      <point x="298.667" y="1102"/>
      <point x="132" y="962.333"/>
      <point x="132" y="785" type="curve" smooth="yes"/>
      <point x="132" y="582"/>
      <point x="330" y="515"/>
      <point x="516.5" y="475" type="curve" smooth="yes"/>
      <point x="703.833" y="435"/>
      <point x="770" y="387"/>
      <point x="770" y="287" type="curve" smooth="yes"/>
      <point x="770" y="192.333"/>
      <point x="678" y="131"/>
      <point x="538" y="131" type="curve" smooth="yes"/>
      <point x="386" y="131"/>
      <point x="286.667" y="209"/>
      <point x="280" y="333" type="curve"/>
      <point x="95" y="333" type="line"/>
      <point x="95" y="110"/>
      <point x="307" y="-20"/>
    </contour>
  </outline>
</glyph>
<glyph name="t" format="2">
  <advance width="669"/>
  <unicode hex="0074"/>
  <note>
uni0074
</note>
  <outline>
    <contour>
      <point x="456" y="-20" type="curve" smooth="yes"/>
      <point x="502" y="-20"/>
      <point x="549.333" y="-13.333"/>
      <point x="598" y="0" type="curve"/>
      <point x="598" y="150" type="line"/>
      <point x="560.667" y="142"/>
      <point x="531.333" y="138"/>
      <point x="510" y="138" type="curve" smooth="yes"/>
      <point x="423.333" y="138"/>
      <point x="391" y="181.333"/>
      <point x="391" y="268" type="curve" smooth="yes"/>
      <point x="391" y="939" type="line"/>
      <point x="593" y="939" type="line"/>
      <point x="593" y="1082" type="line"/>
      <point x="391" y="1082" type="line"/>
      <point x="391" y="1344" type="line"/>
      <point x="206" y="1344" type="line"/>
      <point x="206" y="1082" type="line"/>
      <point x="9" y="1082" type="line"/>
      <point x="9" y="939" type="line"/>
      <point x="206" y="939" type="line"/>
      <point x="206" y="268" type="line" smooth="yes"/>
      <point x="206" y="84"/>
      <point x="290.667" y="-20"/>
    </contour>
  </outline>
</glyph>
<glyph name="u" format="2">
  <advance width="1129"/>
  <unicode hex="0075"/>
  <note>
uni0075
</note>
  <outline>
    <contour>
      <point x="491" y="-20" type="curve" smooth="yes"/>
      <point x="630.333" y="-20"/>
      <point x="736" y="22.333"/>
      <point x="808" y="107" type="curve"/>
      <point x="812" y="0" type="line"/>
      <point x="988" y="0" type="line"/>
      <point x="988" y="1082" type="line"/>
      <point x="803" y="1082" type="line"/>
      <point x="803" y="295" type="line"/>
      <point x="756.333" y="189.667"/>
      <point x="662.333" y="137"/>
      <point x="521" y="137" type="curve" smooth="yes"/>
      <point x="387.667" y="137"/>
      <point x="321" y="219"/>
      <point x="321" y="383" type="curve" smooth="yes"/>
      <point x="321" y="1082" type="line"/>
      <point x="136" y="1082" type="line"/>
      <point x="136" y="378" type="line" smooth="yes"/>
      <point x="137.333" y="115.333"/>
      <point x="260.333" y="-20"/>
    </contour>
  </outline>
</glyph>
<glyph name="w" format="2">
  <advance width="1539"/>
  <unicode hex="0077"/>
  <note>
uni0077
</note>
  <outline>
    <contour>
      <point x="357" y="0" type="line"/>
      <point x="507" y="0" type="line"/>
      <point x="763" y="820" type="line"/>
      <point x="1026" y="0" type="line"/>
      <point x="1176" y="0" type="line"/>
      <point x="1491" y="1082" type="line"/>
      <point x="1306" y="1082" type="line"/>
      <point x="1098" y="255" type="line"/>
      <point x="841" y="1082" type="line"/>
      <point x="692" y="1082" type="line"/>
      <point x="440" y="272" type="line"/>
      <point x="227" y="1082" type="line"/>
      <point x="43" y="1082" type="line"/>
    </contour>
  </outline>
</glyph>
<glyph name="asciitilde" format="2">
  <advance width="1393"/>
  <unicode hex="007E"/>
  <note>
uni007E
</note>
  <outline>
    <contour>
      <point x="939" y="402" type="curve" smooth="yes"/>
      <point x="1121.667" y="402"/>
      <point x="1263" y="566.333"/>
      <point x="1263" y="776" type="curve"/>
      <point x="1110" y="776" type="line"/>
      <point x="1110" y="654"/>
      <point x="1051" y="596"/>
      <point x="973" y="586" type="curve" smooth="yes"/>
      <point x="907" y="578"/>
      <point x="828" y="605"/>
      <point x="758" y="657.5" type="curve" smooth="yes"/>
      <point x="632" y="752"/>
      <point x="555.333" y="802"/>
      <point x="454" y="802" type="curve" smooth="yes"/>
      <point x="268.667" y="802"/>
      <point x="131" y="649.333"/>
      <point x="131" y="436" type="curve"/>
      <point x="292" y="436" type="line"/>
      <point x="292" y="563.333"/>
      <point x="350" y="639"/>
      <point x="454" y="639" type="curve" smooth="yes"/>
      <point x="536" y="639"/>
      <point x="594" y="582"/>
      <point x="654.5" y="529" type="curve" smooth="yes"/>
      <point x="767.167" y="430.333"/>
      <point x="843" y="402"/>
    </contour>
  </outline>
</glyph>
<glyph name="cent" format="2">
  <advance width="1120"/>
  <unicode hex="00A2"/>
  <note>
uni00A2
</note>
  <outline>
    <contour>
      <point x="484" y="-245" type="line"/>
      <point x="669" y="-245" type="line"/>
      <point x="669" y="-12" type="line"/>
      <point x="861" y="22.667"/>
      <point x="1009" y="173"/>
      <point x="1017" y="341" type="curve"/>
      <point x="842" y="341" type="line"/>
      <point x="831.333" y="222.333"/>
      <point x="719.333" y="131"/>
      <point x="586" y="131" type="curve" smooth="yes"/>
      <point x="398" y="131"/>
      <point x="290" y="270.667"/>
      <point x="290" y="520" type="curve" smooth="yes"/>
      <point x="290" y="555" type="line" smooth="yes"/>
      <point x="290" y="811"/>
      <point x="398" y="950"/>
      <point x="586" y="950" type="curve" smooth="yes"/>
      <point x="726" y="950"/>
      <point x="831.333" y="850"/>
      <point x="842" y="710" type="curve"/>
      <point x="1017" y="710" type="line"/>
      <point x="1009" y="910"/>
      <point x="869" y="1064.333"/>
      <point x="669" y="1095" type="curve"/>
      <point x="669" y="1318" type="line"/>
      <point x="484" y="1318" type="line"/>
      <point x="484" y="1092" type="line"/>
      <point x="248" y="1048"/>
      <point x="105" y="844.667"/>
      <point x="105" y="562" type="curve" smooth="yes"/>
      <point x="105" y="527" type="line" smooth="yes"/>
      <point x="105" y="233.667"/>
      <point x="245.333" y="34.333"/>
      <point x="484" y="-11" type="curve"/>
    </contour>
  </outline>
</glyph>
<glyph name="dieresis" format="2">
  <advance width="856"/>
  <unicode hex="00A8"/>
  <note>
uni00A8
</note>
  <outline>
    <contour>
      <point x="640" y="1264" type="curve" smooth="yes"/>
      <point x="712" y="1264"/>
      <point x="750" y="1309"/>
      <point x="750" y="1369" type="curve" smooth="yes"/>
      <point x="750" y="1429"/>
      <point x="712" y="1476"/>
      <point x="640" y="1476" type="curve" smooth="yes"/>
      <point x="568" y="1476"/>
      <point x="531" y="1429"/>
      <point x="531" y="1369" type="curve" smooth="yes"/>
      <point x="531" y="1309"/>
      <point x="568" y="1264"/>
    </contour>
    <contour>
      <point x="210" y="1266" type="curve" smooth="yes"/>
      <point x="282" y="1266"/>
      <point x="320" y="1311"/>
      <point x="320" y="1371" type="curve" smooth="yes"/>
      <point x="320" y="1431"/>
      <point x="282" y="1477"/>
      <point x="210" y="1477" type="curve" smooth="yes"/>
      <point x="138" y="1477"/>
      <point x="101" y="1431"/>
      <point x="101" y="1371" type="curve" smooth="yes"/>
      <point x="101" y="1311"/>
      <point x="138" y="1266"/>
    </contour>
  </outline>
</glyph>
<glyph name="registered" format="2">
  <advance width="1610"/>
  <unicode hex="00AE"/>
  <note>
uni00AE
</note>
  <outline>
    <contour>
      <point x="800" y="-21" type="curve" smooth="yes"/>
      <point x="1064" y="-21"/>
      <point x="1299" y="130.667"/>
      <point x="1419" y="360" type="curve" smooth="yes"/>
      <point x="1479" y="474.667"/>
      <point x="1509" y="597.667"/>
      <point x="1509" y="729" type="curve" smooth="yes"/>
      <point x="1509" y="998.333"/>
      <point x="1377" y="1243.833"/>
      <point x="1157" y="1376.5" type="curve" smooth="yes"/>
      <point x="1047" y="1442.833"/>
      <point x="928" y="1476"/>
      <point x="800" y="1476" type="curve" smooth="yes"/>
      <point x="544" y="1476"/>
      <point x="308.167" y="1334.667"/>
      <point x="183.5" y="1104" type="curve" smooth="yes"/>
      <point x="121.167" y="988.667"/>
      <point x="90" y="863.667"/>
      <point x="90" y="729" type="curve" smooth="yes"/>
      <point x="90" y="463.667"/>
      <point x="216.833" y="220.5"/>
      <point x="437.5" y="82.5" type="curve" smooth="yes"/>
      <point x="547.833" y="13.5"/>
      <point x="668.667" y="-21"/>
    </contour>
    <contour>
      <point x="800" y="98" type="curve" smooth="yes"/>
      <point x="586.667" y="98"/>
      <point x="391.667" y="215.167"/>
      <point x="285" y="410.5" type="curve" smooth="yes"/>
      <point x="231.667" y="508.167"/>
      <point x="205" y="614.333"/>
      <point x="205" y="729" type="curve" smooth="yes"/>
      <point x="205" y="955.667"/>
      <point x="318" y="1163.5"/>
      <point x="502" y="1273.5" type="curve" smooth="yes"/>
      <point x="594" y="1328.5"/>
      <point x="693.333" y="1356"/>
      <point x="800" y="1356" type="curve" smooth="yes"/>
      <point x="1014.667" y="1356"/>
      <point x="1210.833" y="1237.167"/>
      <point x="1315.5" y="1044.5" type="curve" smooth="yes"/>
      <point x="1367.833" y="948.167"/>
      <point x="1394" y="843"/>
      <point x="1394" y="729" type="curve" smooth="yes"/>
      <point x="1394" y="499.667"/>
      <point x="1283" y="295.167"/>
      <point x="1099" y="182.5" type="curve" smooth="yes"/>
      <point x="1007" y="126.167"/>
      <point x="907.333" y="98"/>
    </contour>
    <contour>
      <point x="512" y="316" type="line"/>
      <point x="653" y="316" type="line"/>
      <point x="653" y="654" type="line"/>
      <point x="829" y="654" type="line" smooth="yes"/>
      <point x="964" y="649"/>
      <point x="963" y="572"/>
      <point x="963" y="444.5" type="curve" smooth="yes"/>
      <point x="963" y="382.833"/>
      <point x="967.667" y="340"/>
      <point x="977" y="316" type="curve"/>
      <point x="1122" y="316" type="line"/>
      <point x="1122" y="332" type="line"/>
      <point x="1110.667" y="357.333"/>
      <point x="1105" y="398.667"/>
      <point x="1105" y="517" type="curve" smooth="yes"/>
      <point x="1104.333" y="619.667"/>
      <point x="1063.333" y="687.667"/>
      <point x="982" y="721" type="curve"/>
      <point x="1067.333" y="764.333"/>
      <point x="1110" y="827"/>
      <point x="1110" y="909" type="curve" smooth="yes"/>
      <point x="1110" y="1075.667"/>
      <point x="992" y="1165"/>
      <point x="788" y="1165" type="curve" smooth="yes"/>
      <point x="512" y="1165" type="line"/>
    </contour>
    <contour>
      <point x="653" y="782" type="line"/>
      <point x="653" y="1038" type="line"/>
      <point x="791" y="1038" type="line" smooth="yes"/>
      <point x="924.333" y="1038"/>
      <point x="969" y="1001.333"/>
      <point x="969" y="904" type="curve" smooth="yes"/>
      <point x="969" y="832"/>
      <point x="905" y="784.667"/>
      <point x="809" y="782" type="curve" smooth="yes"/>
    </contour>
  </outline>
</glyph>
<glyph name="onesuperior" format="2">
  <advance width="751"/>
  <unicode hex="00B9"/>
  <note>
uni00B9
</note>
  <outline>
    <contour>
      <point x="338" y="667" type="line"/>
      <point x="495" y="667" type="line"/>
      <point x="495" y="1456" type="line"/>
      <point x="477" y="1456" type="line"/>
      <point x="122" y="1339" type="line"/>
      <point x="122" y="1211" type="line"/>
      <point x="338" y="1268" type="line"/>
    </contour>
  </outline>
</glyph>
<glyph name="Thorn" format="2">
  <advance width="1210"/>
  <unicode hex="00DE"/>
  <note>
uni00DE
</note>
  <outline>
    <contour>
      <point x="166" y="0" type="line"/>
      <point x="352" y="0" type="line"/>
      <point x="352" y="313" type="line"/>
      <point x="626" y="313" type="line" smooth="yes"/>
      <point x="928.667" y="313"/>
      <point x="1117" y="479.333"/>
      <point x="1117" y="738" type="curve" smooth="yes"/>
      <point x="1117" y="906"/>
      <point x="1034.667" y="1040.5"/>
      <point x="888" y="1110.5" type="curve" smooth="yes"/>
      <point x="814.667" y="1145.5"/>
      <point x="729" y="1163"/>
      <point x="631" y="1163" type="curve" smooth="yes"/>
      <point x="352" y="1163" type="line"/>
      <point x="352" y="1456" type="line"/>
      <point x="166" y="1456" type="line"/>
    </contour>
    <contour>
      <point x="352" y="465" type="line"/>
      <point x="352" y="1011" type="line"/>
      <point x="635" y="1011" type="line" smooth="yes"/>
      <point x="816.333" y="1009.667"/>
      <point x="931" y="900"/>
      <point x="931" y="736" type="curve" smooth="yes"/>
      <point x="931" y="576"/>
      <point x="818.333" y="465"/>
      <point x="629" y="465" type="curve" smooth="yes"/>
    </contour>
  </outline>
</glyph>
<glyph name="eth" format="2">
  <advance width="1200"/>
  <unicode hex="00F0"/>
  <note>
uni00F0
</note>
  <outline>
    <contour>
      <point x="602" y="-20" type="curve" smooth="yes"/>
      <point x="780.667" y="-20"/>
      <point x="932.5" y="81.833"/>
      <point x="1010.5" y="250.5" type="curve" smooth="yes"/>
      <point x="1049.5" y="334.833"/>
      <point x="1069" y="429.667"/>
      <point x="1069" y="535" type="curve" smooth="yes"/>
      <point x="1069" y="628" type="line" smooth="yes"/>
      <point x="1069" y="900.667"/>
      <point x="986" y="1125"/>
      <point x="820" y="1301" type="curve"/>
      <point x="988" y="1416" type="line"/>
      <point x="915" y="1516" type="line"/>
      <point x="726" y="1387" type="line"/>
      <point x="609.333" y="1479.667"/>
      <point x="471.333" y="1544"/>
      <point x="312" y="1580" type="curve"/>
      <point x="255" y="1421" type="line"/>
      <point x="377" y="1388.333"/>
      <point x="482" y="1341.667"/>
      <point x="570" y="1281" type="curve"/>
      <point x="378" y="1150" type="line"/>
      <point x="451" y="1051" type="line"/>
      <point x="669" y="1199" type="line"/>
      <point x="763" y="1105"/>
      <point x="826" y="993"/>
      <point x="858" y="863" type="curve"/>
      <point x="777.333" y="939"/>
      <point x="682.667" y="977"/>
      <point x="574" y="977" type="curve" smooth="yes"/>
      <point x="294" y="977"/>
      <point x="126" y="749"/>
      <point x="126" y="467" type="curve" smooth="yes"/>
      <point x="126" y="288.333"/>
      <point x="210.333" y="130.5"/>
      <point x="357" y="44.5" type="curve" smooth="yes"/>
      <point x="430.333" y="1.5"/>
      <point x="512" y="-20"/>
    </contour>
    <contour>
      <point x="606" y="131" type="curve" smooth="yes"/>
      <point x="435.333" y="131"/>
      <point x="311" y="280.333"/>
      <point x="311" y="467" type="curve" smooth="yes"/>
      <point x="311" y="689.667"/>
      <point x="424.667" y="825"/>
      <point x="618" y="825" type="curve" smooth="yes"/>
      <point x="740.667" y="825"/>
      <point x="838" y="772.333"/>
      <point x="882" y="691" type="curve"/>
      <point x="884" y="541" type="line" smooth="yes"/>
      <point x="884" y="295.667"/>
      <point x="772.667" y="131"/>
    </contour>
  </outline>
</glyph>
<glyph name="oslash" format="2">
  <advance width="1168"/>
  <unicode hex="00F8"/>
  <note>
uni00F8
</note>
  <outline>
    <contour>
      <point x="584" y="-20" type="curve" smooth="yes"/>
      <point x="895" y="-20"/>
      <point x="1076" y="223"/>
      <point x="1076" y="529" type="curve" smooth="yes"/>
      <point x="1076" y="880.667"/>
      <point x="876.667" y="1102"/>
      <point x="582" y="1102" type="curve" smooth="yes"/>
      <point x="275" y="1102"/>
      <point x="91" y="856"/>
      <point x="91" y="551" type="curve" smooth="yes"/>
      <point x="91" y="202"/>
      <point x="290.667" y="-20"/>
    </contour>
    <contour>
      <point x="584" y="131" type="curve" smooth="yes"/>
      <point x="397.333" y="131"/>
      <point x="277" y="289"/>
      <point x="277" y="529" type="curve" smooth="yes"/>
      <point x="277" y="799.667"/>
      <point x="399.333" y="950"/>
      <point x="582" y="950" type="curve" smooth="yes"/>
      <point x="768.667" y="950"/>
      <point x="891" y="788.333"/>
      <point x="891" y="551" type="curve" smooth="yes"/>
      <point x="891" y="285.667"/>
      <point x="772" y="131"/>
    </contour>
    <contour>
      <point x="198" y="-245" type="line"/>
      <point x="357" y="-245" type="line"/>
      <point x="964" y="1336" type="line"/>
      <point x="806" y="1336" type="line"/>
    </contour>
  </outline>
</glyph>
<glyph name="oe" format="2">
  <advance width="1860"/>
  <unicode hex="0153"/>
  <note>
uni0153
</note>
  <outline>
    <contour>
      <point x="581" y="-20" type="curve" smooth="yes"/>
      <point x="759.667" y="-20"/>
      <point x="893.333" y="60"/>
      <point x="976" y="192" type="curve"/>
      <point x="1060" y="58.667"/>
      <point x="1199" y="-20"/>
      <point x="1379" y="-20" type="curve" smooth="yes"/>
      <point x="1542.333" y="-20"/>
      <point x="1669.667" y="24"/>
      <point x="1761" y="112" type="curve"/>
      <point x="1687" y="238" type="line"/>
      <point x="1607" y="166"/>
      <point x="1504.333" y="130"/>
      <point x="1379" y="130" type="curve" smooth="yes"/>
      <point x="1200.333" y="130"/>
      <point x="1083.333" y="270.333"/>
      <point x="1074" y="497" type="curve"/>
      <point x="1792" y="497" type="line"/>
      <point x="1792" y="613" type="line" smooth="yes"/>
      <point x="1792" y="926.333"/>
      <point x="1627" y="1102"/>
      <point x="1351" y="1102" type="curve" smooth="yes"/>
      <point x="1201.667" y="1102"/>
      <point x="1064.667" y="1021"/>
      <point x="978" y="885" type="curve"/>
      <point x="896.667" y="1018.333"/>
      <point x="761.667" y="1102"/>
      <point x="579" y="1102" type="curve" smooth="yes"/>
      <point x="389.667" y="1102"/>
      <point x="238.167" y="1007.333"/>
      <point x="157.5" y="838" type="curve" smooth="yes"/>
      <point x="117.167" y="753.333"/>
      <point x="97" y="657.667"/>
      <point x="97" y="551" type="curve" smooth="yes"/>
      <point x="97" y="538" type="line" smooth="yes"/>
      <point x="97" y="199.333"/>
      <point x="287.667" y="-20"/>
    </contour>
    <contour>
      <point x="581" y="130" type="curve" smooth="yes"/>
      <point x="395.667" y="130"/>
      <point x="282" y="285"/>
      <point x="282" y="529" type="curve" smooth="yes"/>
      <point x="282" y="805"/>
      <point x="399" y="950"/>
      <point x="579" y="950" type="curve" smooth="yes"/>
      <point x="763" y="950"/>
      <point x="878" y="793.667"/>
      <point x="878" y="551" type="curve" smooth="yes"/>
      <point x="878" y="276.333"/>
      <point x="763.667" y="130"/>
    </contour>
    <contour>
      <point x="1080" y="649" type="line"/>
      <point x="1109.333" y="833"/>
      <point x="1219" y="950"/>
      <point x="1351" y="950" type="curve" smooth="yes"/>
      <point x="1508.333" y="950"/>
      <point x="1606" y="841.667"/>
      <point x="1606" y="675" type="curve" smooth="yes"/>
      <point x="1606" y="649" type="line"/>
    </contour>
  </outline>
</glyph>
<glyph name="breve" format="2">
  <advance width="874"/>
  <unicode hex="02D8"/>
  <note>
uni02D8
</note>
  <outline>
    <contour>
      <point x="429" y="1227" type="curve" smooth="yes"/>
      <point x="607.667" y="1227"/>
      <point x="728" y="1333.667"/>
      <point x="728" y="1495" type="curve"/>
      <point x="578" y="1495" type="line"/>
      <point x="578" y="1400.333"/>
      <point x="522.333" y="1346"/>
      <point x="429" y="1346" type="curve" smooth="yes"/>
      <point x="331.667" y="1346"/>
      <point x="280" y="1401.667"/>
      <point x="280" y="1495" type="curve"/>
      <point x="129" y="1495" type="line"/>
      <point x="129" y="1335"/>
      <point x="250.333" y="1227"/>
    </contour>
  </outline>
</glyph>
<glyph name="sixty-ethiopic" format="2">
  <advance width="1150"/>
  <unicode hex="1377"/>
  <outline>
    <contour>
      <point x="590" y="0" type="line"/>
      <point x="1149" y="0" type="line"/>
      <point x="1149" y="160" type="line"/>
      <point x="776" y="160" type="line"/>
      <point x="776" y="782" type="line"/>
      <point x="609" y="782" type="line"/>
      <point x="609" y="1417" type="line"/>
      <point x="50" y="1417" type="line"/>
      <point x="50" y="1236" type="line"/>
      <point x="423" y="1236" type="line"/>
      <point x="423" y="612" type="line"/>
      <point x="590" y="612" type="line"/>
    </contour>
    <component base="_num.bar"/>
  </outline>
</glyph>
<glyph name="ninety-ethiopic" format="2">
  <advance width="1353"/>
  <unicode hex="137A"/>
  <outline>
    <contour>
      <point x="915" y="-4" type="line"/>
      <point x="1079" y="-4" type="line"/>
      <point x="844" y="635" type="line"/>
      <point x="1155" y="1331" type="line"/>
      <point x="1155" y="1435" type="line"/>
      <point x="171" y="1435" type="line"/>
      <point x="171" y="1283" type="line"/>
      <point x="959" y="1283" type="line"/>
      <point x="661" y="637" type="line"/>
    </contour>
    <component base="_num.bar" xOffset="94"/>
  </outline>
</glyph>
<glyph name="perthousand" format="2">
  <advance width="1962"/>
  <unicode hex="2030"/>
  <note>
uni2030
</note>
  <outline>
    <contour>
      <point x="429" y="110" type="line"/>
      <point x="1140" y="1248" type="line"/>
      <point x="1036" y="1314" type="line"/>
      <point x="325" y="176" type="line"/>
    </contour>
    <contour>
      <point x="1123" y="99" type="curve" smooth="yes"/>
      <point x="1024.333" y="99"/>
      <point x="961" y="173.667"/>
      <point x="961" y="279" type="curve" smooth="yes"/>
      <point x="961" y="353" type="line" smooth="yes"/>
      <point x="961" y="465"/>
      <point x="1026.333" y="536"/>
      <point x="1121" y="536" type="curve" smooth="yes"/>
      <point x="1218.333" y="536"/>
      <point x="1281" y="462.333"/>
      <point x="1281" y="357" type="curve" smooth="yes"/>
      <point x="1281" y="283" type="line" smooth="yes"/>
      <point x="1281" y="169.667"/>
      <point x="1219" y="99"/>
    </contour>
    <contour>
      <point x="368" y="800" type="curve" smooth="yes"/>
      <point x="544" y="800"/>
      <point x="665" y="927"/>
      <point x="665" y="1099" type="curve" smooth="yes"/>
      <point x="665" y="1171" type="line" smooth="yes"/>
      <point x="665" y="1352.333"/>
      <point x="542" y="1477"/>
      <point x="366" y="1477" type="curve" smooth="yes"/>
      <point x="191.333" y="1477"/>
      <point x="68" y="1350.667"/>
      <point x="68" y="1176" type="curve" smooth="yes"/>
      <point x="68" y="1106" type="line" smooth="yes"/>
      <point x="68" y="920.667"/>
      <point x="194.667" y="800"/>
    </contour>
    <contour>
      <point x="368" y="920" type="curve" smooth="yes"/>
      <point x="269.333" y="920"/>
      <point x="206" y="995"/>
      <point x="206" y="1099" type="curve" smooth="yes"/>
      <point x="206" y="1172" type="line" smooth="yes"/>
      <point x="206" y="1282.667"/>
      <point x="270" y="1356"/>
      <point x="366" y="1356" type="curve" smooth="yes"/>
      <point x="464.667" y="1356"/>
      <point x="526" y="1280"/>
      <point x="526" y="1176" type="curve" smooth="yes"/>
      <point x="526" y="1103" type="line" smooth="yes"/>
      <point x="526" y="989.667"/>
      <point x="462.667" y="920"/>
    </contour>
    <contour>
      <point x="1123" y="-21" type="curve" smooth="yes"/>
      <point x="1223.667" y="-21"/>
      <point x="1299.333" y="19"/>
      <point x="1350" y="99" type="curve"/>
      <point x="1402.667" y="19"/>
      <point x="1480" y="-21"/>
      <point x="1582" y="-21" type="curve" smooth="yes"/>
      <point x="1755.333" y="-21"/>
      <point x="1879" y="104.333"/>
      <point x="1879" y="279" type="curve" smooth="yes"/>
      <point x="1879" y="350" type="line" smooth="yes"/>
      <point x="1879" y="535.333"/>
      <point x="1754.667" y="657"/>
      <point x="1580" y="657" type="curve" smooth="yes"/>
      <point x="1479.333" y="657"/>
      <point x="1402.667" y="616.667"/>
      <point x="1350" y="536" type="curve"/>
      <point x="1298.667" y="616.667"/>
      <point x="1222.333" y="657"/>
      <point x="1121" y="657" type="curve" smooth="yes"/>
      <point x="946.333" y="657"/>
      <point x="823" y="531.667"/>
      <point x="823" y="357" type="curve" smooth="yes"/>
      <point x="823" y="285" type="line" smooth="yes"/>
      <point x="823" y="99.667"/>
      <point x="949.667" y="-21"/>
    </contour>
    <contour>
      <point x="1581" y="99" type="curve" smooth="yes"/>
      <point x="1483.667" y="99"/>
      <point x="1420" y="173.667"/>
      <point x="1420" y="279" type="curve" smooth="yes"/>
      <point x="1420" y="353" type="line" smooth="yes"/>
      <point x="1420" y="463.667"/>
      <point x="1483" y="536"/>
      <point x="1579" y="536" type="curve" smooth="yes"/>
      <point x="1676.333" y="536"/>
      <point x="1739" y="462.333"/>
      <point x="1739" y="357" type="curve" smooth="yes"/>
      <point x="1739" y="283" type="line" smooth="yes"/>
      <point x="1739" y="173.667"/>
      <point x="1677" y="99"/>
    </contour>
  </outline>
</glyph>
<glyph name="uniF6C3" format="2">
  <advance width="515"/>
  <unicode hex="F6C3"/>
  <note>
uniF6C3
</note>
  <outline>
    <contour>
      <point x="197" y="-161" type="line"/>
      <point x="286.333" y="-89"/>
      <point x="343" y="41.667"/>
      <point x="343" y="163" type="curve" smooth="yes"/>
      <point x="343" y="239" type="line"/>
      <point x="166" y="239" type="line"/>
      <point x="166" y="147" type="line" smooth="yes"/>
      <point x="164.667" y="62.333"/>
      <point x="140" y="-16.333"/>
      <point x="92" y="-89" type="curve"/>
    </contour>
  </outline>
</glyph>
<glyph name=".notdef" format="2">
  <advance width="908"/>
  <note>
.notdef
</note>
  <outline>
    <contour>
      <point x="100" y="0" type="line"/>
      <point x="808" y="0" type="line"/>
      <point x="808" y="1456" type="line"/>
      <point x="100" y="1456" type="line"/>
    </contour>
    <contour>
      <point x="194" y="54" type="line"/>
      <point x="451" y="660" type="line"/>
      <point x="709" y="54" type="line"/>
    </contour>
    <contour>
      <point x="154" y="96" type="line"/>
      <point x="154" y="1359" type="line"/>
      <point x="422" y="728" type="line"/>
    </contour>
    <contour>
      <point x="754" y="84" type="line"/>
      <point x="480" y="728" type="line"/>
      <point x="754" y="1371" type="line"/>
    </contour>
    <contour>
      <point x="451" y="796" type="line"/>
      <point x="194" y="1402" type="line"/>
      <point x="709" y="1402" type="line"/>
    </contour>
  </outline>
</glyph>
<glyph name="_smart.cha" format="2">
  <anchor x="-5" y="34" name="_cha"/>
  <outline>
    <contour>
      <point x="-545" y="-18"/>
      <point x="-326" y="-18"/>
      <point x="-326" y="124" type="curve" smooth="yes"/>
      <point x="-326" y="267"/>
      <point x="-545" y="269"/>
      <point x="-545" y="124" type="curve" smooth="yes"/>
    </contour>
    <contour>
      <point x="352" y="-25"/>
      <point x="571" y="-25"/>
      <point x="571" y="117" type="curve" smooth="yes"/>
      <point x="571" y="260"/>
      <point x="352" y="262"/>
      <point x="352" y="117" type="curve" smooth="yes"/>
    </contour>
  </outline>
</glyph>
<glyph name="_smart.da.caps" format="2">
  <advance width="1292"/>
  <anchor x="152" y="38" name="_da.caps"/>
  <outline>
    <contour>
      <point x="893" y="0" type="curve"/>
      <point x="1072" y="3" type="line"/>
      <point x="1068" y="117"/>
      <point x="979" y="342"/>
      <point x="850" y="342" type="curve" smooth="yes"/>
      <point x="210" y="342" type="line"/>
      <point x="210" y="247" type="line"/>
      <point x="728" y="247" type="line" smooth="yes"/>
      <point x="857" y="247"/>
      <point x="883" y="92"/>
    </contour>
  </outline>
</glyph>
<glyph name="_smart.fa" format="2">
  <anchor x="433" y="54" name="_fa"/>
  <outline>
    <contour>
      <point x="374" y="551" type="line"/>
      <point x="129" y="551" type="line"/>
      <point x="129" y="460" type="line"/>
      <point x="217.621" y="460" type="line"/>
      <point x="218" y="55" type="line"/>
      <point x="374" y="55" type="line"/>
    </contour>
  </outline>
</glyph>
<glyph name="_smart.neck.left.caps" format="2">
  <anchor x="1" y="-24" name="_neck.left.caps"/>
  <outline>
    <contour>
      <point x="-81" y="-24" type="line"/>
      <point x="88" y="-24" type="line"/>
      <point x="88" y="340" type="line"/>
      <point x="-81" y="340" type="line"/>
    </contour>
  </outline>
</glyph>
<glyph name="_smart.nose.extend" format="2">
  <anchor x="28" y="1009" name="_nose.extend"/>
  <outline>
    <contour>
      <point x="-83" y="1009" type="line"/>
      <point x="-83" y="748" type="line"/>
      <point x="28" y="748" type="line"/>
      <point x="28" y="1009" type="line"/>
    </contour>
  </outline>
</glyph>
<glyph name="_smart.xwaa" format="2">
  <advance width="858"/>
  <anchor x="416.614" y="19" name="_xwaa"/>
  <outline>
    <contour>
      <point x="213" y="-74" type="line"/>
      <point x="675" y="-74" type="line"/>
      <point x="675" y="-358" type="line"/>
      <point x="844" y="-358" type="line"/>
      <point x="844" y="8" type="line"/>
      <point x="213" y="8" type="line"/>
    </contour>
  </outline>
</glyph>
<glyph name="_smart.ye" format="2">
  <advance width="927"/>
  <anchor x="340" y="44" name="_ye"/>
  <outline>
    <contour>
      <point x="23" y="-209" type="curve"/>
      <point x="147" y="-209" type="line"/>
      <point x="147" y="-144"/>
      <point x="174" y="-103"/>
      <point x="246" y="-103" type="curve" smooth="yes"/>
      <point x="372" y="-103"/>
      <point x="548" y="-103"/>
      <point x="695" y="-103" type="curve" smooth="yes"/>
      <point x="830" y="-103"/>
      <point x="851" y="246"/>
      <point x="851" y="302" type="curve"/>
      <point x="727" y="302" type="line"/>
      <point x="727" y="233"/>
      <point x="734" y="10"/>
      <point x="666" y="10" type="curve" smooth="yes"/>
      <point x="565" y="10"/>
      <point x="357" y="10"/>
      <point x="237" y="10" type="curve" smooth="yes"/>
      <point x="108" y="10"/>
      <point x="23" y="-59"/>
    </contour>
  </outline>
</glyph>
<glyph name="_smart.yee" format="2">
  <anchor x="-30" y="336" name="_yee"/>
  <outline>
    <contour>
      <point x="186" y="134" type="curve" smooth="yes"/>
      <point x="307" y="134"/>
      <point x="401" y="222"/>
      <point x="401" y="338" type="curve" smooth="yes"/>
      <point x="401" y="453"/>
      <point x="309" y="546"/>
      <point x="186" y="546" type="curve" smooth="yes"/>
      <point x="63" y="546"/>
      <point x="-29" y="453"/>
      <point x="-29" y="338" type="curve" smooth="yes"/>
      <point x="-29" y="223"/>
      <point x="63" y="134"/>
    </contour>
    <contour>
      <point x="186" y="223" type="curve" smooth="yes"/>
      <point x="121" y="223"/>
      <point x="70" y="275"/>
      <point x="70" y="338" type="curve" smooth="yes"/>
      <point x="70" y="402"/>
      <point x="119" y="456"/>
      <point x="186" y="456" type="curve" smooth="yes"/>
      <point x="263" y="456"/>
      <point x="301" y="398"/>
      <point x="301" y="340" type="curve" smooth="yes"/>
      <point x="301" y="282"/>
      <point x="263" y="223"/>
    </contour>
  </outline>
</glyph>
<glyph name="_smart.yi" format="2">
  <anchor x="149" y="726" name="_yi"/>
  <outline>
    <contour>
      <point x="208" y="581" type="line"/>
      <point x="643" y="581" type="line"/>
      <point x="643" y="732" type="line"/>
      <point x="208" y="732" type="line"/>
    </contour>
    <contour>
      <point x="730" y="462" type="curve" smooth="yes"/>
      <point x="802" y="462"/>
      <point x="840" y="507"/>
      <point x="840" y="567" type="curve" smooth="yes"/>
      <point x="840" y="627"/>
      <point x="802" y="674"/>
      <point x="730" y="674" type="curve" smooth="yes"/>
      <point x="658" y="674"/>
      <point x="621" y="627"/>
      <point x="621" y="567" type="curve" smooth="yes"/>
      <point x="621" y="507"/>
      <point x="658" y="462"/>
    </contour>
  </outline>
</glyph>
<glyph name="ba.base" format="2">
  <advance width="1251"/>
  <anchor x="311" y="765" name="aGl"/>
  <anchor x="29.691" y="1465" name="eGl"/>
  <anchor x="989" y="-30" name="haa"/>
  <anchor x="634" y="1382" name="hat"/>
  <anchor x="294" y="1322" name="hat.left"/>
  <anchor x="584" y="1244" name="he.acute.top"/>
  <anchor x="391" y="560" name="he.left.inner"/>
  <anchor x="193" y="634" name="he.left.outer"/>
  <anchor x="906" y="60" name="hee"/>
  <anchor x="1051" y="110" name="hi"/>
  <anchor x="282" y="-13" name="ho"/>
  <anchor x="1055" y="673" name="hu"/>
  <anchor x="961" y="-19" name="hwa"/>
  <anchor x="525" y="1041" name="ka"/>
  <anchor x="619" y="1114" name="neck"/>
  <outline>
    <contour>
      <point x="200" y="0" type="line"/>
      <point x="385" y="0" type="line"/>
      <point x="385" y="806" type="line" smooth="yes"/>
      <point x="385" y="952"/>
      <point x="509" y="974"/>
      <point x="650" y="970" type="curve" smooth="yes"/>
      <point x="838" y="965"/>
      <point x="866" y="872"/>
      <point x="866" y="716" type="curve" smooth="yes"/>
      <point x="866" y="0" type="line"/>
      <point x="1051" y="0" type="line"/>
      <point x="1051" y="715" type="line" smooth="yes"/>
      <point x="1051" y="973"/>
      <point x="862" y="1098"/>
      <point x="633" y="1102" type="curve" smooth="yes"/>
      <point x="389" y="1106"/>
      <point x="200" y="992"/>
      <point x="200" y="788" type="curve" smooth="yes"/>
    </contour>
  </outline>
</glyph>
<glyph name="fl.liga" format="2">
  <advance width="1163"/>
  <note>
uniFB02
</note>
  <outline>
    <contour>
      <point x="231" y="0" type="line"/>
      <point x="416" y="0" type="line"/>
      <point x="416" y="939" type="line"/>
      <point x="647" y="939" type="line"/>
      <point x="647" y="1082" type="line"/>
      <point x="416" y="1082" type="line"/>
      <point x="416" y="1189" type="line" smooth="yes"/>
      <point x="416" y="1329"/>
      <point x="482.667" y="1399"/>
      <point x="616" y="1399" type="curve" smooth="yes"/>
      <point x="666.667" y="1399"/>
      <point x="733.333" y="1392.333"/>
      <point x="816" y="1379" type="curve"/>
      <point x="816" y="0" type="line"/>
      <point x="1001" y="0" type="line"/>
      <point x="1001" y="1496" type="line"/>
      <point x="801.667" y="1536.667"/>
      <point x="668.333" y="1557"/>
      <point x="601" y="1557" type="curve" smooth="yes"/>
      <point x="365" y="1557"/>
      <point x="232.333" y="1430.667"/>
      <point x="231" y="1200" type="curve" smooth="yes"/>
      <point x="231" y="1082" type="line"/>
      <point x="60" y="1082" type="line"/>
      <point x="60" y="939" type="line"/>
      <point x="231" y="939" type="line"/>
    </contour>
  </outline>
</glyph>
<glyph name="ga.base" format="2">
  <advance width="908"/>
  <anchor x="814" y="10" name="haa"/>
  <anchor x="582" y="-31" name="haa.acute"/>
  <anchor x="280" y="1367" name="hat"/>
  <anchor x="222" y="1316" name="hat.left"/>
  <anchor x="546" y="592" name="he.left.outer"/>
  <anchor x="642" y="40" name="hee"/>
  <anchor x="710" y="110" name="hi"/>
  <anchor x="316" y="703" name="ho.ring"/>
  <anchor x="63" y="1342" name="ho.ring.uniq"/>
  <anchor x="712" y="638" name="hu"/>
  <anchor x="624" y="0" name="hwa"/>
  <anchor x="316" y="1072" name="neck"/>
  <anchor x="112" y="1008" name="neck.left"/>
  <anchor x="6" y="1315" name="nose"/>
  <anchor x="-18" y="1085" name="nose.extend"/>
  <anchor x="352" y="1030" name="ring"/>
  <anchor x="431" y="1" name="xwaa"/>
  <outline>
    <contour>
      <point x="522" y="0" type="line"/>
      <point x="708" y="0" type="line"/>
      <point x="708" y="558" type="line" smooth="yes"/>
      <point x="708" y="895"/>
      <point x="576" y="1083"/>
      <point x="326" y="1102" type="curve" smooth="yes"/>
      <point x="220" y="1110"/>
      <point x="94" y="1050"/>
      <point x="30" y="1008" type="curve"/>
      <point x="198" y="944" type="line"/>
      <point x="219" y="955"/>
      <point x="253" y="966"/>
      <point x="326" y="961" type="curve" smooth="yes"/>
      <point x="498" y="949"/>
      <point x="522" y="812"/>
      <point x="522" y="565" type="curve" smooth="yes"/>
    </contour>
  </outline>
</glyph>
<glyph name="ha.base" format="2">
  <advance width="1247"/>
  <anchor x="997" y="10" name="haa"/>
  <anchor x="192" y="782" name="he"/>
  <anchor x="389" y="783" name="he.left.inner"/>
  <anchor x="937" y="0" name="hee"/>
  <anchor x="1069" y="-240" name="hi"/>
  <anchor x="1071" y="1128" name="ho.ring"/>
  <anchor x="1017" y="690" name="hu"/>
  <anchor x="947" y="0" name="hwa"/>
  <outline>
    <contour>
      <point x="639" y="-20" type="curve" smooth="yes"/>
      <point x="868" y="-20"/>
      <point x="1047" y="109"/>
      <point x="1047" y="367" type="curve" smooth="yes"/>
      <point x="1047" y="1082" type="line"/>
      <point x="862" y="1082" type="line"/>
      <point x="862" y="366" type="line" smooth="yes"/>
      <point x="862" y="210"/>
      <point x="793" y="137"/>
      <point x="645" y="137" type="curve" smooth="yes"/>
      <point x="483" y="137"/>
      <point x="381" y="220"/>
      <point x="381" y="366" type="curve" smooth="yes"/>
      <point x="381" y="1082" type="line"/>
      <point x="196" y="1082" type="line"/>
      <point x="196" y="334" type="line" smooth="yes"/>
      <point x="196" y="125"/>
      <point x="375" y="-20"/>
    </contour>
  </outline>
</glyph>
<glyph name="pa.base.cap" format="2">
  <advance width="1222"/>
  <anchor x="788" y="15" name="haa"/>
  <anchor x="589" y="16" name="haa.acute"/>
  <anchor x="873" y="1636" name="hat.caps"/>
  <anchor x="579" y="1511" name="he.acute.top"/>
  <anchor x="644" y="52" name="hee"/>
  <anchor x="699" y="114" name="hi"/>
  <anchor x="868" y="1561" name="ho.ring"/>
  <anchor x="708" y="983" name="hu"/>
  <anchor x="616" y="-52" name="hwa"/>
  <anchor x="601" y="1532" name="neck.caps"/>
  <outline>
    <contour>
      <point x="516" y="0" type="line"/>
      <point x="707" y="0" type="line"/>
      <point x="707" y="1298" type="line"/>
      <point x="1175" y="1298" type="line"/>
      <point x="1175" y="1456" type="line"/>
      <point x="49" y="1456" type="line"/>
      <point x="49" y="1298" type="line"/>
      <point x="516" y="1298" type="line"/>
    </contour>
  </outline>
</glyph>
<glyph name="ra.base" format="2">
  <advance width="1092"/>
  <anchor x="786" y="101" name="fa"/>
  <anchor x="757" y="-43" name="haa"/>
  <anchor x="742" y="-70" name="haa.acute"/>
  <anchor x="627" y="960" name="hat"/>
  <anchor x="360" y="1040" name="hat.left"/>
  <anchor x="1042" y="638" name="hee"/>
  <anchor x="1061" y="940" name="ho.ring"/>
  <anchor x="709" y="34" name="hwa"/>
  <anchor x="996.024" y="305" name="ra"/>
  <anchor x="718" y="281" name="raa"/>
  <anchor x="1036" y="234" name="ri"/>
  <outline>
    <contour>
      <point x="582" y="-20" type="curve" smooth="yes"/>
      <point x="784" y="-20"/>
      <point x="985" y="127"/>
      <point x="1062" y="295" type="curve"/>
      <point x="954" y="295" type="line"/>
      <point x="904" y="205"/>
      <point x="714" y="131"/>
      <point x="582" y="131" type="curve" smooth="yes"/>
      <point x="431" y="131"/>
      <point x="385" y="255"/>
      <point x="385" y="517" type="curve" smooth="yes"/>
      <point x="385" y="1082" type="line"/>
      <point x="200" y="1082" type="line"/>
      <point x="200" y="524" type="line" smooth="yes"/>
      <point x="200" y="187"/>
      <point x="289" y="-20"/>
    </contour>
  </outline>
</glyph>
<glyph name="wa.base.cap" format="2">
  <advance width="1810"/>
  <anchor x="944" y="-4" name="haa"/>
  <anchor x="901" y="-116" name="haa.acute"/>
  <anchor x="1193" y="1638" name="hat.caps"/>
  <anchor x="1678" y="990" name="he"/>
  <anchor x="967" y="-23" name="he.acute.bottom"/>
  <anchor x="878" y="1546" name="he.acute.top"/>
  <anchor x="1309" y="-81" name="hee"/>
  <anchor x="1033" y="-263" name="hi"/>
  <anchor x="1162" y="1624" name="ho.ring"/>
  <anchor x="1649.204" y="1043" name="hu"/>
  <anchor x="989" y="26" name="hwa"/>
  <anchor x="914" y="1446" name="neck.caps"/>
  <outline>
    <contour>
      <point x="768" y="0" type="curve" smooth="yes"/>
      <point x="1171" y="0" type="line"/>
      <point x="1370" y="37"/>
      <point x="1524" y="152"/>
      <point x="1612" y="323" type="curve" smooth="yes"/>
      <point x="1665" y="426"/>
      <point x="1691" y="547"/>
      <point x="1691" y="684" type="curve" smooth="yes"/>
      <point x="1691" y="777" type="line" smooth="yes"/>
      <point x="1691" y="1045"/>
      <point x="1580" y="1260"/>
      <point x="1385" y="1372" type="curve" smooth="yes"/>
      <point x="1274" y="1436"/>
      <point x="1219" y="1456"/>
      <point x="1078" y="1456" type="curve" smooth="yes"/>
      <point x="760" y="1456" type="line" smooth="yes"/>
      <point x="507" y="1456"/>
      <point x="305" y="1340"/>
      <point x="199" y="1133" type="curve" smooth="yes"/>
      <point x="146" y="1030"/>
      <point x="118" y="911"/>
      <point x="118" y="777" type="curve" smooth="yes"/>
      <point x="118" y="684" type="line" smooth="yes"/>
      <point x="118" y="409"/>
      <point x="228" y="196"/>
      <point x="425" y="85" type="curve" smooth="yes"/>
      <point x="523" y="30"/>
      <point x="637" y="0"/>
    </contour>
    <contour>
      <point x="777" y="157" type="line" smooth="yes"/>
      <point x="481" y="157"/>
      <point x="308" y="348"/>
      <point x="308" y="688" type="curve" smooth="yes"/>
      <point x="308" y="773" type="line" smooth="yes"/>
      <point x="308" y="1104"/>
      <point x="470" y="1298"/>
      <point x="755" y="1298" type="curve" smooth="yes"/>
      <point x="820" y="1298" type="line"/>
      <point x="820" y="157" type="line"/>
    </contour>
    <contour>
      <point x="1006" y="157" type="line"/>
      <point x="1006" y="1298" type="line"/>
      <point x="1171" y="1298" type="line" smooth="yes"/>
      <point x="1390" y="1298"/>
      <point x="1501" y="1056"/>
      <point x="1501" y="773" type="curve" smooth="yes"/>
      <point x="1501" y="688" type="line" smooth="yes"/>
      <point x="1501" y="405"/>
      <point x="1390" y="157"/>
      <point x="1171" y="157" type="curve" smooth="yes"/>
    </contour>
  </outline>
</glyph>
<glyph name="ya.base" format="2">
  <advance width="1143"/>
  <anchor x="229" y="154" name="da"/>
  <anchor x="654" y="-159" name="di"/>
  <anchor x="697" y="234" name="du"/>
  <anchor x="838" y="-10" name="haa"/>
  <anchor x="396" y="-45" name="haa.acute"/>
  <anchor x="515" y="1341" name="hat"/>
  <anchor x="1219" y="756" name="he"/>
  <anchor x="244" y="970" name="he.left.outer"/>
  <anchor x="836" y="53" name="hee"/>
  <anchor x="933" y="11" name="hha"/>
  <anchor x="732" y="-290" name="hi"/>
  <anchor x="174" y="-10" name="ho"/>
  <anchor x="727" y="299" name="hu"/>
  <anchor x="811" y="0" name="hwa"/>
  <anchor x="552" y="1112" name="neck"/>
  <anchor x="377" y="64" name="ye"/>
  <anchor x="389" y="249" name="yee"/>
  <anchor x="178" y="381" name="yi"/>
  <anchor x="178" y="335" name="yu"/>
  <outline>
    <contour>
      <point x="247" y="0" type="line"/>
      <point x="435" y="0" type="line"/>
      <point x="315" y="488" type="line"/>
      <point x="889" y="488" type="line" smooth="yes"/>
      <point x="940" y="488"/>
      <point x="979" y="519"/>
      <point x="985" y="565" type="curve" smooth="yes"/>
      <point x="1029" y="907"/>
      <point x="881" y="1102"/>
      <point x="600" y="1102" type="curve" smooth="yes"/>
      <point x="428" y="1102"/>
      <point x="271" y="1001"/>
      <point x="189" y="833" type="curve" smooth="yes"/>
      <point x="148" y="748"/>
      <point x="101" y="602"/>
      <point x="127" y="495" type="curve" smooth="yes"/>
    </contour>
    <contour>
      <point x="318" y="630" type="line"/>
      <point x="342" y="836"/>
      <point x="451" y="950"/>
      <point x="600" y="950" type="curve" smooth="yes"/>
      <point x="775" y="950"/>
      <point x="838" y="832"/>
      <point x="819" y="630" type="curve"/>
    </contour>
  </outline>
</glyph>
<glyph name="za.base.cap" format="2">
  <advance width="1460"/>
  <anchor x="1228" y="-27" name="haa"/>
  <anchor x="299.513" y="1530" name="he.acute.top"/>
  <anchor x="1151" y="67" name="hee"/>
  <anchor x="1298" y="99" name="hi"/>
  <anchor x="256" y="-29" name="ho"/>
  <anchor x="1280" y="1001" name="hu"/>
  <anchor x="1194" y="-27" name="hwa"/>
  <anchor x="1088" y="1455" name="zha.caps"/>
  <outline>
    <contour>
      <point x="169" y="0" type="line"/>
      <point x="361" y="0" type="line"/>
      <point x="361" y="673" type="line"/>
      <point x="1095" y="673" type="line"/>
      <point x="1095" y="0" type="line"/>
      <point x="1288" y="0" type="line"/>
      <point x="1288" y="1456" type="line"/>
      <point x="1095" y="1456" type="line"/>
      <point x="1095" y="830" type="line"/>
      <point x="361" y="830" type="line"/>
      <point x="361" y="1456" type="line"/>
      <point x="169" y="1456" type="line"/>
    </contour>
  </outline>
</glyph>
